<?xml version="1.0" encoding="UTF-8"?>
<svg width="1200pt" height="1200pt" version="1.1" viewBox="0 0 1200 1200" xmlns="http://www.w3.org/2000/svg">
 <path d="m234 222c-14.566 0-26.25 12.059-26.25 26.625v522c0 14.566 11.684 26.25 26.25 26.25h701.25c14.566 0 26.25-11.684 26.25-26.25v-522c0-14.566-11.684-26.625-26.25-26.625zm0 12h701.25c8.125 0 14.25 6.5 14.25 14.625v522c0 8.125-6.125 14.25-14.25 14.25h-701.25c-8.125 0-14.25-6.125-14.25-14.25v-522c0-8.125 6.125-14.625 14.25-14.625z"/>
 <path d="m239.06 254.53c-2.8281 0.63281-4.8008 3.1953-4.6875 6.0938v497.81c-0.027344 1.625 0.60938 3.1875 1.7578 4.3359 1.1484 1.1484 2.7109 1.7852 4.3359 1.7578h688.59c3.2031-0.19922 5.6797-2.8867 5.625-6.0938v-497.81c0.054688-3.207-2.4219-5.8945-5.625-6.0938h-688.59c-0.46875-0.054688-0.9375-0.054688-1.4062 0zm7.5 12.188h676.41v485.62h-676.41z"/>
 <path d="m585.38 294.38c-74.82 0.054688-149.16 5.4766-223.12 16.5-11.328 1.6875-18.828 10.648-21.375 21-26.184 106.47-25.441 213.1 0 319.5 2.4922 10.43 10.148 19.203 21.375 21 153.53 24.551 302.45 19.887 448.88 0 11.484-1.5586 18.559-10.988 21.375-21 30.074-106.84 21.266-213.13 0-319.12-2.1562-10.758-10.105-19.699-21.375-21.375-75.68-11.246-150.93-16.555-225.75-16.5zm0 12c74.227-0.054688 149.15 5.3398 224.25 16.5 6.6836 0.99219 9.8359 4.5859 11.25 11.625 21.086 105.09 29.348 209.62 0 313.88-2.1016 7.4609-4.7461 11.117-11.25 12-145.59 19.773-293.4 24.32-445.5 0-6.6953-1.0703-9.8984-4.7773-11.625-12-25.031-104.69-25.727-208.88 0-313.5 1.7891-7.2734 5-11.012 11.625-12 73.398-10.938 147.02-16.445 221.25-16.5z"/>
 <path d="m407.3 737.02c0 4.5938-3.7227 8.3203-8.3203 8.3203-4.5938 0-8.3203-3.7227-8.3203-8.3203 0-4.5938 3.7227-8.3203 8.3203-8.3203 4.5938 0 8.3203 3.7227 8.3203 8.3203z"/>
 <path d="m461.06 737.98c0 4.5938-3.7227 8.3203-8.3203 8.3203-4.5938 0-8.3203-3.7227-8.3203-8.3203 0-4.5938 3.7227-8.3203 8.3203-8.3203 4.5938 0 8.3203 3.7227 8.3203 8.3203z"/>
 <path d="m507.13 737.02c0 4.5938-3.7227 8.3203-8.3203 8.3203-4.5938 0-8.3203-3.7227-8.3203-8.3203 0-4.5938 3.7227-8.3203 8.3203-8.3203 4.5938 0 8.3203 3.7227 8.3203 8.3203z"/>
 <path d="m564.09 737.66c0 4.5938-3.7227 8.3203-8.3203 8.3203-4.5938 0-8.3203-3.7227-8.3203-8.3203 0-4.5938 3.7227-8.3203 8.3203-8.3203 4.5938 0 8.3203 3.7227 8.3203 8.3203z"/>
 <path d="m617.84 736.06c0 4.5938-3.7227 8.3203-8.3203 8.3203-4.5938 0-8.3203-3.7227-8.3203-8.3203 0-4.5938 3.7227-8.3203 8.3203-8.3203 4.5938 0 8.3203 3.7227 8.3203 8.3203z"/>
 <path d="m671.27 738.3c0 4.5938-3.7227 8.3203-8.3203 8.3203-4.5938 0-8.3203-3.7227-8.3203-8.3203 0-4.5938 3.7227-8.3203 8.3203-8.3203 4.5938 0 8.3203 3.7227 8.3203 8.3203z"/>
 <path d="m726.3 736.7c0 4.5938-3.7227 8.3203-8.3203 8.3203-4.5938 0-8.3203-3.7227-8.3203-8.3203 0-4.5938 3.7227-8.3203 8.3203-8.3203 4.5938 0 8.3203 3.7227 8.3203 8.3203z"/>
 <path d="m776.86 736.06c0 4.5938-3.7227 8.3203-8.3203 8.3203-4.5938 0-8.3203-3.7227-8.3203-8.3203 0-4.5938 3.7227-8.3203 8.3203-8.3203 4.5938 0 8.3203 3.7227 8.3203 8.3203z"/>
 <path d="m82.125 762c-2.0508 0.8125-3.4922 2.6836-3.75 4.875l-48.375 227.62c-0.0625 0.49609-0.0625 1.0039 0 1.5v72c0 3.3125 2.6875 6 6 6h1116c3.3125 0 6-2.6875 6-6v-72c0.0625-0.49609 0.0625-1.0039 0-1.5l-48-227.62c-0.54688-2.8672-3.082-4.9258-6-4.875h-144v12h139.12l46.875 222v66h-1104v-66l47.25-222h126.75v-12h-132c-0.62109-0.097656-1.2539-0.097656-1.875 0z"/>
 <path d="m94.219 822.19c-2.1797 0.63672-3.8125 2.4531-4.2188 4.6875l-36.094 167.81c-0.054688 0.46875-0.054688 0.9375 0 1.4062v23.906c-0.027344 1.625 0.60938 3.1875 1.7578 4.3359 1.1484 1.1484 2.7109 1.7852 4.3359 1.7578h1067.8c1.625 0.027344 3.1875-0.60938 4.3359-1.7578 1.1484-1.1484 1.7852-2.7109 1.7578-4.3359v-23.906c0.054688-0.46875 0.054688-0.9375 0-1.4062l-36.094-167.81c-0.59375-2.6562-2.9023-4.582-5.625-4.6875h-996.09c-0.62109-0.097656-1.2539-0.097656-1.875 0zm6.5625 11.719h986.25l35.156 162.19v17.812h-1056.1v-17.812z"/>
</svg>
